G04 ================== begin FILE IDENTIFICATION RECORD ==================*
G04 Layout Name:  C:/Users/simon/Documents/Personal/SID/allegro/sid_module_b2.brd*
G04 Film Name:    SID_MODULE_B2L02*
G04 File Format:  Gerber RS274X*
G04 File Origin:  Cadence Allegro 17.4-S018*
G04 Origin Date:  Sat Jun  5 16:08:34 2021*
G04 *
G04 Layer:  VIA CLASS/BOTTOM*
G04 Layer:  PIN/BOTTOM*
G04 Layer:  MANUFACTURING/TITLEBLOCK*
G04 Layer:  ETCH/BOTTOM*
G04 *
G04 Offset:    (0.0000 0.0000)*
G04 Mirror:    No*
G04 Mode:      Positive*
G04 Rotation:  0*
G04 FullContactRelief:  No*
G04 UndefLineWidth:     0.1500*
G04 ================== end FILE IDENTIFICATION RECORD ====================*
%FSLAX25Y25*MOMM*%
%IR0*IPPOS*OFA0.00000B0.00000*MIA0B0*SFA1.00000B1.00000*%
%ADD12R,.9X1.5*%
%ADD10C,.5*%
%ADD11C,.6*%
%ADD15C,1.8*%
%ADD13C,1.524*%
%ADD14R,1.524X1.524*%
%ADD16C,.2*%
%ADD17C,.15*%
%ADD18C,.216*%
%ADD19C,1.*%
%ADD23C,2.1004*%
%ADD22C,2.2004*%
%ADD25C,2.4004*%
%ADD24C,1.8004*%
%ADD21C,1.8244*%
%ADD20C,1.9244*%
G75*
%LPD*%
G75*
G36*
G01X5728020Y5599990D02*
X5879990D01*
Y5599970D01*
X6200040D01*
G02X6434530Y5436550I-19J-249971D01*
G02X6416540Y5427400I-9531J-3521D01*
G03X6150000Y5570180I-266540J-177397D01*
G03Y4929820I0J-320180D01*
G03X6430920Y5096370I0J320189D01*
G02X6449990Y5091500I8912J-4875D01*
G01Y2985010D01*
X6434000D01*
G03Y2664990I0J-160010D01*
G01X6449990D01*
Y508500D01*
G02X6430920Y503630I-10158J5D01*
G03X6150000Y670180I-280920J-153639D01*
G03X5835580Y410450I0J-320178D01*
G02X5816670Y407520I-9979J1918D01*
G03X5720000Y465020I-96670J-52512D01*
G03Y244980I0J-110020D01*
G03X5815430Y300250I0J110020D01*
G02X5834260Y296870I8810J-5061D01*
G03X5996370Y69080I315743J53124D01*
G02X5991500Y50010I-4875J-8912D01*
G01X4550000D01*
Y2200000D01*
X4450000D01*
Y50010D01*
X508500D01*
G02X503630Y69080I5J10158D01*
G03X670180Y350000I-153639J280920D01*
G03X468310Y647520I-320180J0D01*
G02X467500Y666030I3759J9437D01*
G03X550010Y800000I-67507J133970D01*
G01Y4750000D01*
G03X400000Y4900010I-150010J0D01*
G01X300000D01*
G02X65220Y5064130I0J249991D01*
G02X83230Y5073230I9542J3487D01*
G03X350000Y4929980I266770J176774D01*
G03Y5570020I0J320020D01*
G03X83230Y5426770I0J-320024D01*
G02X65220Y5435870I-8468J5613D01*
G02X300000Y5599990I234780J-85871D01*
G01X771980D01*
Y5548000D01*
X771640Y5547120D01*
G03X766980Y5522000I65361J-25117D01*
G03X771640Y5496880I70021J-3D01*
G01X771980Y5496000D01*
Y5447000D01*
G03X792000Y5426980I20020J0D01*
G01X882000D01*
G03X902020Y5446920I0J20020D01*
G01X902040Y5451980D01*
X1025960D01*
X1025980Y5446920D01*
G03X1046000Y5426980I20020J80D01*
G01X1136000D01*
G03X1156020Y5447000I0J20020D01*
G01Y5476980D01*
X1186170D01*
X1187180Y5476520D01*
G03X1208000Y5471980I20820J45469D01*
G03Y5572020I0J50020D01*
G03X1187180Y5567480I0J-50009D01*
G01X1186170Y5567020D01*
X1156020D01*
Y5599990D01*
X1284980D01*
Y5447000D01*
G03X1300000Y5431980I15020J0D01*
G01X1390000D01*
G03X1405020Y5447000I0J15020D01*
G01Y5599990D01*
X1533980D01*
Y5447000D01*
G03X1554000Y5426980I20020J0D01*
G01X1644000D01*
G03X1664020Y5447000I0J20020D01*
G01Y5466740D01*
G02X1678200Y5476070I10161J-2D01*
G03X1698000Y5471980I19810J45928D01*
G03Y5572020I0J50020D01*
G03X1678200Y5567930I10J-50018D01*
G02X1664020Y5577260I-4019J9332D01*
G01Y5599990D01*
X1787980D01*
Y5447000D01*
G03X1808000Y5426980I20020J0D01*
G01X1898000D01*
G03X1918020Y5447000I0J20020D01*
G01Y5465180D01*
G02X1931530Y5474770I10160J-2D01*
G03X1948000Y5471980I16470J47218D01*
G03Y5572020I0J50020D01*
G03X1931530Y5569230I0J-50008D01*
G02X1918020Y5578820I-3350J9592D01*
G01Y5599990D01*
X2041980D01*
Y5447000D01*
G03X2062000Y5426980I20020J0D01*
G01X2152000D01*
G03X2172020Y5447000I0J20020D01*
G01Y5463940D01*
G02X2184850Y5473740I10160J-3D01*
G03X2198000Y5471980I13152J48260D01*
G03Y5572020I0J50020D01*
G03X2184850Y5570260I2J-50020D01*
G02X2172020Y5580060I-2670J9803D01*
G01Y5599990D01*
X2300980D01*
Y5447000D01*
G03X2316000Y5431980I15020J0D01*
G01X2406000D01*
G03X2421020Y5447000I0J15020D01*
G01Y5599990D01*
X2549980D01*
Y5579480D01*
G02X2536810Y5569780I-10159J2D01*
G03X2522000Y5572020I-14801J-47781D01*
G03Y5471980I0J-50020D01*
G03X2536810Y5474220I9J50021D01*
G02X2549980Y5464520I3011J-9702D01*
G01Y5447000D01*
G03X2570000Y5426980I20020J0D01*
G01X2660000D01*
G03X2680020Y5447000I0J20020D01*
G01Y5599990D01*
X2803980D01*
Y5447000D01*
G03X2824000Y5426980I20020J0D01*
G01X2914000D01*
G03X2934020Y5447000I0J20020D01*
G01Y5472220D01*
G02X2949890Y5480630I10161J5D01*
G03X2978000Y5471980I28116J41368D01*
G03Y5572020I0J50020D01*
G03X2949890Y5563370I6J-50018D01*
G02X2934020Y5571780I-5709J8405D01*
G01Y5599990D01*
X3062980D01*
Y5447000D01*
G03X3078000Y5431980I15020J0D01*
G01X3168000D01*
G03X3183020Y5447000I0J15020D01*
G01Y5599990D01*
X3311980D01*
Y5447000D01*
G03X3332000Y5426980I20020J0D01*
G01X3422000D01*
G03X3442020Y5447000I0J20020D01*
G01Y5463940D01*
G02X3454850Y5473740I10160J-3D01*
G03X3468000Y5471980I13152J48260D01*
G03Y5572020I0J50020D01*
G03X3454850Y5570260I2J-50020D01*
G02X3442020Y5580060I-2670J9803D01*
G01Y5599990D01*
X3565980D01*
Y5447000D01*
G03X3586000Y5426980I20020J0D01*
G01X3676000D01*
G03X3696020Y5447000I0J20020D01*
G01Y5470920D01*
G02X3711550Y5479540I10158J-2D01*
G03X3738000Y5471980I26442J42462D01*
G03Y5572020I0J50020D01*
G03X3711550Y5564460I-8J-50022D01*
G02X3696020Y5573080I-5372J8622D01*
G01Y5599990D01*
X3819980D01*
Y5447000D01*
G03X3840000Y5426980I20020J0D01*
G01X3930000D01*
G03X3950020Y5447000I0J20020D01*
G01Y5464520D01*
G02X3963190Y5474220I10159J-2D01*
G03X3978000Y5471980I14801J47781D01*
G03Y5572020I0J50020D01*
G03X3963190Y5569780I-9J-50021D01*
G02X3950020Y5579480I-3011J9702D01*
G01Y5599990D01*
X4073980D01*
Y5548000D01*
X4073640Y5547120D01*
G03X4068980Y5522000I65361J-25117D01*
G03X4073640Y5496880I70021J-3D01*
G01X4073980Y5496000D01*
Y5447000D01*
G03X4094000Y5426980I20020J0D01*
G01X4184000D01*
G03X4187860Y5427360I-22J20018D01*
G02X4199980Y5417390I1959J-9971D01*
G01Y5082610D01*
G02X4187860Y5072640I-10161J1D01*
G03X4184000Y5073020I-3882J-19638D01*
G01X4094000D01*
G03X4073980Y5053000I0J-20020D01*
G01Y5023020D01*
X4064000D01*
G03X4032170Y5009830I7J-45017D01*
G01X3996470Y4974140D01*
G03X3969980Y4930000I23530J-44140D01*
G03X4020000Y4879980I50020J0D01*
G03X4064390Y4906950I0J50016D01*
G01X4065810Y4909690D01*
X4073980D01*
Y4903000D01*
G03X4094000Y4882980I20020J0D01*
G01X4184000D01*
G03X4192690Y4884970I-11J20017D01*
G01X4193740Y4885470D01*
X4199980D01*
Y4880000D01*
G03X4270000Y4809980I70020J0D01*
G03X4304770Y4819230I-11J70017D01*
G02X4319980Y4810410I5048J-8819D01*
G01Y4780010D01*
G03X4299980Y4740000I30020J-40010D01*
G03X4400020I50020J0D01*
G03X4380020Y4780010I-50020J0D01*
G01Y4817570D01*
X4414230Y4851770D01*
G03X4423020Y4873000I-21243J21230D01*
G01Y4882980D01*
X4438000D01*
G03X4458020Y4903000I0J20020D01*
G01Y5053000D01*
G03X4438000Y5073020I-20020J0D01*
G01X4348000D01*
G03X4345690Y5072890I-32J-20022D01*
G01X4345390Y5072850D01*
X4340020D01*
Y5432190D01*
X4345470D01*
X4345830Y5432140D01*
G03X4348000Y5431980I2186J14859D01*
G01X4438000D01*
G03X4453020Y5447000I0J15020D01*
G01Y5599990D01*
X4581980D01*
Y5447000D01*
G03X4602000Y5426980I20020J0D01*
G01X4692000D01*
G03X4712020Y5447000I0J20020D01*
G01Y5463940D01*
G02X4724850Y5473740I10160J-3D01*
G03X4738000Y5471980I13152J48260D01*
G03Y5572020I0J50020D01*
G03X4724850Y5570260I2J-50020D01*
G02X4712020Y5580060I-2670J9803D01*
G01Y5599990D01*
X4840980D01*
Y5447000D01*
G03X4856000Y5431980I15020J0D01*
G01X4946000D01*
G03X4961020Y5447000I0J15020D01*
G01Y5599990D01*
X5089980D01*
Y5447000D01*
G03X5110000Y5426980I20020J0D01*
G01X5124980D01*
Y5415000D01*
G03X5133770Y5393770I30033J0D01*
G01X5190430Y5337110D01*
X5190200Y5334730D01*
G03X5189980Y5330000I49802J-4686D01*
G03X5240000Y5380020I50020J0D01*
G03X5235270Y5379800I-44J-50022D01*
G01X5232890Y5379570D01*
X5194150Y5418310D01*
G02X5197740Y5426980I3591J3591D01*
G01X5200000D01*
G03X5220020Y5447000I0J20020D01*
G01Y5462990D01*
G02X5232180Y5472950I10159J1D01*
G03X5242000Y5471980I9803J49052D01*
G03Y5572020I0J50020D01*
G03X5232180Y5571050I-17J-50022D01*
G02X5220020Y5581010I-2001J9959D01*
G01Y5599990D01*
X5343980D01*
Y5447000D01*
G03X5353730Y5429810I20029J0D01*
G02X5355640Y5423100I-2597J-4366D01*
G03X5349980Y5400000I44357J-23112D01*
G03X5450020I50020J0D01*
G03X5445900Y5419880I-50023J0D01*
G01X5445480Y5420850D01*
Y5426980D01*
X5454000D01*
G03X5474020Y5447000I0J20020D01*
G01Y5599990D01*
X5597980D01*
Y5576360D01*
G02X5583460Y5567180I-10160J-2D01*
G03X5562000Y5572020I-21465J-45179D01*
G03Y5471980I0J-50020D01*
G03X5583460Y5476820I-5J50019D01*
G02X5597980Y5467640I4360J-9178D01*
G01Y5447000D01*
G03X5618000Y5426980I20020J0D01*
G01X5708000D01*
G03X5728020Y5447000I0J20020D01*
G01Y5599990D01*
G37*
G36*
G01X4256750D02*
X4332980D01*
Y5513830D01*
G02X4323980Y5510590I-5081J-5D01*
G03X4319510Y5515510I-54000J-44570D01*
G01X4263510Y5571510D01*
G03X4251340Y5581240I-49539J-49486D01*
G02X4256750Y5599990I5418J8592D01*
G37*
%LPC*%
G75*
G36*
G01X1792980Y4903000D02*
Y5053000D01*
G02X1808000Y5068020I15020J0D01*
G01X1898000D01*
G02X1913020Y5053000I0J-15020D01*
G01Y4903000D01*
G02X1898000Y4887980I-15020J0D01*
G01X1808000D01*
G02X1792980Y4903000I0J15020D01*
G37*
G36*
G01X2803980D02*
Y5053000D01*
G02X2824000Y5073020I20020J0D01*
G01X2914000D01*
G02X2934020Y5053000I0J-20020D01*
G01Y4903000D01*
G02X2914000Y4882980I-20020J0D01*
G01X2824000D01*
G02X2803980Y4903000I0J20020D01*
G37*
G36*
G01X771980D02*
Y5053000D01*
G02X792000Y5073020I20020J0D01*
G01X882000D01*
G02X902020Y5053000I0J-20020D01*
G01Y4903000D01*
G02X882000Y4882980I-20020J0D01*
G01X792000D01*
G02X771980Y4903000I0J20020D01*
G37*
G36*
G01X3824980D02*
Y5053000D01*
G02X3840000Y5068020I15020J0D01*
G01X3930000D01*
G02X3945020Y5053000I0J-15020D01*
G01Y4903000D01*
G02X3930000Y4887980I-15020J0D01*
G01X3840000D01*
G02X3824980Y4903000I0J15020D01*
G37*
G36*
G01X5602980D02*
Y5053000D01*
G02X5618000Y5068020I15020J0D01*
G01X5708000D01*
G02X5723020Y5053000I0J-15020D01*
G01Y4903000D01*
G02X5708000Y4887980I-15020J0D01*
G01X5618000D01*
G02X5602980Y4903000I0J15020D01*
G37*
G36*
G01X4344780Y3825800D02*
Y3978200D01*
G02X4364800Y3998220I20020J0D01*
G01X4517200D01*
G02X4537220Y3978200I0J-20020D01*
G01Y3825800D01*
G02X4517200Y3805780I-20020J0D01*
G01X4364800D01*
G02X4344780Y3825800I0J20020D01*
G37*
G36*
G01X810000Y4310020D02*
X2151000D01*
X2330490Y4489510D01*
G02X2380000Y4510020I49510J-49502D01*
G02X2450020Y4440000I0J-70020D01*
G02X2429510Y4390490I-70012J0D01*
G01X2229510Y4190490D01*
G02X2180000Y4169980I-49510J49502D01*
G01X839000D01*
X770020Y4101000D01*
Y839000D01*
X1309000Y300020D01*
X3951000D01*
X4054980Y404000D01*
Y476000D01*
X3881000Y649980D01*
X3300000D01*
G02Y790020I0J70020D01*
G01X3910000D01*
G02X3959510Y769510I0J-70012D01*
G01X4174510Y554510D01*
G02X4195020Y505000I-49502J-49510D01*
G01Y375000D01*
G02X4174510Y325490I-70012J0D01*
G01X4029510Y180490D01*
G02X3980000Y159980I-49510J49502D01*
G01X1280000D01*
G02X1230490Y180490I0J70012D01*
G01X650490Y760490D01*
G02X629980Y810000I49502J49510D01*
G01Y4130000D01*
G02X650490Y4179510I70012J0D01*
G01X760490Y4289510D01*
G02X810000Y4310020I49510J-49502D01*
G37*
G36*
G01X1025980Y4903000D02*
Y5053000D01*
G02X1046000Y5073020I20020J0D01*
G01X1136000D01*
G02X1156020Y5053000I0J-20020D01*
G01Y5029080D01*
G03X1171550Y5020460I10158J2D01*
G02X1198000Y5028020I26442J-42462D01*
G02Y4927980I0J-50020D01*
G02X1171550Y4935540I-8J50022D01*
G03X1156020Y4926920I-5372J-8622D01*
G01Y4903000D01*
G02X1136000Y4882980I-20020J0D01*
G01X1046000D01*
G02X1025980Y4903000I0J20020D01*
G37*
G36*
G01X1533980Y5008020D02*
Y5053000D01*
G02X1554000Y5073020I20020J0D01*
G01X1644000D01*
G02X1664020Y5053000I0J-20020D01*
G01Y4903000D01*
G02X1644000Y4882980I-20020J0D01*
G01X1554000D01*
G02X1549930Y4883400I9J20019D01*
G03X1538090Y4876250I-2072J-9948D01*
G02X1490000Y4839980I-48090J13746D01*
G02X1439980Y4890000I0J50020D01*
G02X1459980Y4930010I50020J0D01*
G01Y4945000D01*
G02X1468770Y4966230I30033J0D01*
G01X1501770Y4999230D01*
G02X1523000Y5008020I21230J-21243D01*
G01X1533980D01*
G37*
G36*
G01X4581980Y4951810D02*
Y5053000D01*
G02X4602000Y5073020I20020J0D01*
G01X4692000D01*
G02X4712020Y5053000I0J-20020D01*
G01Y4903000D01*
G02X4692000Y4882980I-20020J0D01*
G01X4640020D01*
Y4847510D01*
G02X4660020Y4807500I-30020J-40010D01*
G02X4610000Y4757480I-50020J0D01*
G02X4607120Y4757560I-52J50021D01*
G03X4596530Y4749180I-584J-10143D01*
G02X4577290Y4717830I-49264J8655D01*
G01Y4245160D01*
X4592890Y4229570D01*
X4595270Y4229800D01*
G02X4600000Y4230020I4686J-49802D01*
G02X4549980Y4180000I0J-50020D01*
G02X4550200Y4184730I50022J44D01*
G01X4550430Y4187110D01*
X4526040Y4211500D01*
G02X4517250Y4232730I21243J21230D01*
G01Y4717830D01*
G02X4497250Y4757840I30020J40010D01*
G02X4547270Y4807860I50020J0D01*
G02X4550150Y4807780I52J-50021D01*
G03X4560740Y4816160I584J10143D01*
G02X4579980Y4847510I49264J-8655D01*
G01Y4941000D01*
G02X4581690Y4950990I30020J3D01*
G01X4581980Y4951810D01*
G37*
G36*
G01X5089980Y4903000D02*
Y5053000D01*
G02X5110000Y5073020I20020J0D01*
G01X5200000D01*
G02X5220020Y5053000I0J-20020D01*
G01Y4903000D01*
G02X5200000Y4882980I-20020J0D01*
G01X5194120D01*
Y4876220D01*
X5195120Y4874870D01*
G02X5205020Y4845000I-40111J-29870D01*
G02X5104980I-50020J0D01*
G02X5114880Y4874870I50011J0D01*
G01X5115880Y4876220D01*
Y4882980D01*
X5110000D01*
G02X5089980Y4903000I0J20020D01*
G37*
G36*
G01X5355850Y5071290D02*
G03X5361380Y5083680I-4138J9276D01*
G02X5358980Y5099000I47622J15308D01*
G02X5459020I50020J0D01*
G02X5456620Y5083680I-50022J-12D01*
G03X5462150Y5071290I9668J-3114D01*
G02X5474020Y5053000I-8156J-18290D01*
G01Y4903000D01*
G02X5454000Y4882980I-20020J0D01*
G01X5364000D01*
G02X5343980Y4903000I0J20020D01*
G01Y5053000D01*
G02X5355850Y5071290I20026J0D01*
G37*
G36*
G01X2310210Y5072160D02*
G03X2316340Y5086470I-2938J9727D01*
G02X2310980Y5109000I44671J22530D01*
G02X2411020I50020J0D01*
G02X2405660Y5086470I-50031J0D01*
G03X2411790Y5072160I9068J-4583D01*
G02X2426020Y5053000I-5784J-19160D01*
G01Y4903000D01*
G02X2406000Y4882980I-20020J0D01*
G01X2316000D01*
G02X2295980Y4903000I0J20020D01*
G01Y5053000D01*
G02X2310210Y5072160I20014J0D01*
G37*
G36*
G01X1300000Y5073020D02*
X1309160D01*
Y5080050D01*
X1307850Y5081500D01*
G02X1294980Y5115000I37152J33495D01*
G02X1395020I50020J0D01*
G02X1382150Y5081500I-50022J-5D01*
G01X1380840Y5080050D01*
Y5073020D01*
X1390000D01*
G02X1410020Y5053000I0J-20020D01*
G01Y4903000D01*
G02X1390000Y4882980I-20020J0D01*
G01X1300000D01*
G02X1279980Y4903000I0J20020D01*
G01Y5053000D01*
G02X1300000Y5073020I20020J0D01*
G37*
G36*
G01X2570000D02*
X2579160D01*
Y5080050D01*
X2577850Y5081500D01*
G02X2564980Y5115000I37152J33495D01*
G02X2665020I50020J0D01*
G02X2652150Y5081500I-50022J-5D01*
G01X2650840Y5080050D01*
Y5073020D01*
X2660000D01*
G02X2680020Y5053000I0J-20020D01*
G01Y4903000D01*
G02X2660000Y4882980I-20020J0D01*
G01X2570000D01*
G02X2549980Y4903000I0J20020D01*
G01Y5053000D01*
G02X2570000Y5073020I20020J0D01*
G37*
G36*
G01X2076980D02*
Y5092990D01*
G02X2056980Y5133000I30020J40010D01*
G02X2157020I50020J0D01*
G02X2137020Y5092990I-50020J0D01*
G01Y5073020D01*
X2152000D01*
G02X2172020Y5053000I0J-20020D01*
G01Y4903000D01*
G02X2152000Y4882980I-20020J0D01*
G01X2062000D01*
G02X2041980Y4903000I0J20020D01*
G01Y5053000D01*
G02X2062000Y5073020I20020J0D01*
G01X2076980D01*
G37*
G36*
G01X4835980Y5053000D02*
G02X4856000Y5073020I20020J0D01*
G01X4946000D01*
G02X4966020Y5053000I0J-20020D01*
G01Y4903000D01*
G02X4946000Y4882980I-20020J0D01*
G01X4900570D01*
G03X4893390Y4865640I5J-10158D01*
G01X5101170Y4657860D01*
X5103550Y4658090D01*
G02X5108280Y4658310I4686J-49802D01*
G02X5158300Y4608290I0J-50020D01*
G02X5114820Y4558700I-50019J0D01*
G03X5108360Y4542110I1330J-10071D01*
G02X5120020Y4510000I-38363J-32103D01*
G02X5019980I-50020J0D01*
G02X5020200Y4514730I50022J44D01*
G01X5020430Y4517110D01*
X4887570Y4649980D01*
X4850010D01*
G02X4810000Y4629980I-40010J30020D01*
G02X4784770Y4636810I0J50015D01*
G03X4769570Y4626680I-5131J-8770D01*
G02X4770020Y4620000I-49569J-6694D01*
G02X4750020Y4579990I-50020J0D01*
G01Y4352430D01*
X5322430Y3780020D01*
X6180010D01*
G02X6201240Y3771230I0J-30033D01*
G01X6401230Y3571240D01*
G02X6410020Y3550010I-21243J-21230D01*
G01Y3280000D01*
G02X6401230Y3258770I-30033J0D01*
G01X5541230Y2398770D01*
G02X5520000Y2389980I-21230J21243D01*
G01X5060010D01*
G02X5020000Y2369980I-40010J30020D01*
G02X5004920Y2372310I8J50019D01*
G01X5001980Y2373240D01*
X4996200Y2367460D01*
X5008650Y2355020D01*
X5630000D01*
G02X5661830Y2341830I-7J-45017D01*
G01X5808650Y2195020D01*
X5838170D01*
X5839180Y2195480D01*
G02X5860000Y2200020I20820J-45469D01*
G02Y2099980I0J-50020D01*
G02X5839180Y2104520I0J50009D01*
G01X5838170Y2104980D01*
X5790000D01*
G02X5758170Y2118170I7J45017D01*
G01X5611350Y2264980D01*
X4990000D01*
G02X4958170Y2278170I7J45017D01*
G01X4908170Y2328170D01*
G02X4894980Y2360000I31827J31837D01*
G01Y2780000D01*
G02X4908170Y2811830I45017J-7D01*
G01X5104980Y3008650D01*
Y3254980D01*
X4868650D01*
X4791830Y3178170D01*
G02X4760000Y3164980I-31837J31827D01*
G01X4208650D01*
X3724020Y2680350D01*
Y2463040D01*
G02X3775220Y2378000I-45023J-85040D01*
G02X3582780I-96220J0D01*
G02X3633980Y2463040I96223J0D01*
G01Y2699000D01*
G02X3647170Y2730830I45017J-7D01*
G01X4158170Y3241830D01*
G02X4190000Y3255020I31837J-31827D01*
G01X4741350D01*
X4818170Y3331830D01*
G02X4850000Y3345020I31837J-31827D01*
G01X5136350D01*
X5168170Y3376830D01*
G02X5200000Y3390020I31837J-31827D01*
G01X5889620D01*
X6008180Y3508580D01*
G02X6000980Y3547730I102821J39147D01*
G02X6111000Y3437710I110020J0D01*
G02X6074820Y3443830I3J110020D01*
G01X6071810Y3444880D01*
X5940100Y3313170D01*
G02X5908270Y3299980I-31837J31827D01*
G01X5218650D01*
X5195020Y3276350D01*
Y2990000D01*
G02X5181830Y2958170I-45017J7D01*
G01X4985020Y2761350D01*
Y2474820D01*
G03X4999370Y2465570I10159J4D01*
G02X5020000Y2470020I20625J-45571D01*
G02X5060010Y2450020I0J-50020D01*
G01X5507570D01*
X6349980Y3292430D01*
Y3537580D01*
X6167580Y3719980D01*
X5310000D01*
G02X5288770Y3728770I0J30033D01*
G01X4698770Y4318770D01*
G02X4689980Y4340000I21243J21230D01*
G01Y4579990D01*
G02X4669980Y4620000I30020J40010D01*
G02X4720000Y4670020I50020J0D01*
G02X4745230Y4663190I0J-50015D01*
G03X4760430Y4673320I5131J8770D01*
G02X4759980Y4680000I49569J6694D01*
G02X4810000Y4730020I50020J0D01*
G02X4850010Y4710020I0J-50020D01*
G01X4900000D01*
G02X4921230Y4701230I0J-30033D01*
G01X5062890Y4559570D01*
X5065270Y4559800D01*
G02X5070000Y4560020I4686J-49802D01*
G02X5073880Y4559870I9J-50020D01*
G03X5077410Y4568930I395J5064D01*
G02X5058260Y4608290I30874J39360D01*
G02X5058480Y4613020I50022J44D01*
G01X5058710Y4615400D01*
X4804770Y4869340D01*
G02X4795980Y4890570I21243J21230D01*
G01Y4922910D01*
G03X4791000Y4927990I-5080J1D01*
G02X4741980Y4978000I1000J50010D01*
G02X4792000Y5028020I50020J0D01*
G02X4820110Y5019370I-6J-50018D01*
G03X4835980Y5027780I5709J8405D01*
G01Y5053000D01*
G37*
G36*
G01X3479980Y5139990D02*
G02X3459980Y5180000I30020J40010D01*
G02X3560020I50020J0D01*
G02X3540020Y5139990I-50020J0D01*
G01Y4949000D01*
X3548640Y4940390D01*
G03X3565980Y4947570I7182J7185D01*
G01Y5053000D01*
G02X3586000Y5073020I20020J0D01*
G01X3676000D01*
G02X3696020Y5053000I0J-20020D01*
G01Y4903000D01*
G02X3684820Y4885030I-20016J0D01*
G03X3679460Y4873390I4483J-9118D01*
G02X3681020Y4861000I-48459J-12395D01*
G02X3660020Y4820260I-50018J0D01*
G01Y4792270D01*
G03X3675210Y4783450I10158J4D01*
G02X3700000Y4790020I24782J-43452D01*
G02X3750020Y4740000I0J-50020D01*
G02X3730020Y4699990I-50020J0D01*
G01Y4270000D01*
G02X3721230Y4248770I-30033J0D01*
G01X3689570Y4217110D01*
X3689800Y4214730D01*
G02X3690020Y4210000I-49802J-4686D01*
G02X3640000Y4159980I-50020J0D01*
G02X3617540Y4165310I7J50018D01*
G03X3602820Y4156230I-4559J-9081D01*
G01Y3985410D01*
G03X3619280Y3977450I10158J7D01*
G02X3679000Y3998220I59713J-75452D01*
G02X3775220Y3902000I0J-96220D01*
G02X3687800Y3806180I-96224J0D01*
G03X3682190Y3788290I927J-10115D01*
G02X3700020Y3750000I-32199J-38290D01*
G02X3599980I-50020J0D01*
G02X3600200Y3754730I50022J44D01*
G01X3600430Y3757110D01*
X3551570Y3805970D01*
G02X3542780Y3827200I21243J21230D01*
G01Y4113240D01*
G03X3525440Y4120420I-10158J-5D01*
G01X3493790Y4088770D01*
G02X3472560Y4079980I-21230J21243D01*
G01X3362430D01*
X3348820Y4066370D01*
Y3985410D01*
G03X3365280Y3977450I10158J7D01*
G02X3425000Y3998220I59713J-75452D01*
G02Y3805780I0J-96220D01*
G02X3408280Y3807240I-22J96222D01*
G01X3405680Y3807700D01*
X3400210Y3802240D01*
X3412890Y3789570D01*
X3415270Y3789800D01*
G02X3420000Y3790020I4686J-49802D01*
G02X3470020Y3740000I0J-50020D01*
G02X3438470Y3693510I-50027J0D01*
G03X3435030Y3676890I3747J-9442D01*
G01X3536670Y3575250D01*
X3805010D01*
X3816720Y3586960D01*
G02X3836180Y3595020I19460J-19462D01*
G01X4173820D01*
G02X4193280Y3586960I0J-27522D01*
G01X4204990Y3575250D01*
X4866820D01*
G02X4953180I43180J-25252D01*
G01X5242410D01*
X5243490Y3578890D01*
G02X5349000Y3657750I105510J-31153D01*
G02Y3437710I0J-110020D01*
G02X5243490Y3516570I0J110013D01*
G01X5242410Y3520210D01*
X4950180D01*
G02X4869820I-40180J29787D01*
G01X4193590D01*
G02X4174130Y3528270I0J27522D01*
G01X4162420Y3539980D01*
X3847580D01*
X3835870Y3528270D01*
G02X3816410Y3520210I-19460J19462D01*
G01X3525270D01*
G02X3505810Y3528270I0J27522D01*
G01X3216740Y3817340D01*
G02X3171000Y3805780I-45728J84663D01*
G02X3080950Y3868090I0J96225D01*
G01X3079710Y3871380D01*
X3071120D01*
Y3861100D01*
G02X3062330Y3839870I-30033J0D01*
G01X2989570Y3767110D01*
X2989800Y3764730D01*
G02X2990020Y3760000I-49802J-4686D01*
G02X2889980I-50020J0D01*
G02X2901380Y3791790I50025J0D01*
G03X2895770Y3808150I-7848J6451D01*
G02X2820780Y3902000I21232J93850D01*
G02X2917000Y3998220I96220J0D01*
G02X2992910Y3961130I0J-96225D01*
G03X3011080Y3967380I8011J6247D01*
G01Y4036470D01*
X2877110Y4170430D01*
X2874730Y4170200D01*
G02X2870000Y4169980I-4686J49802D01*
G02X2828590Y4191940I0J50023D01*
G03X2810020Y4186240I-8411J-5698D01*
G01Y3420010D01*
G02X2830020Y3380000I-30020J-40010D01*
G02X2729980I-50020J0D01*
G02X2749980Y3420010I50020J0D01*
G01Y3828410D01*
G03X2732480Y3835440I-10161J3D01*
G02X2663000Y3805780I-69480J66550D01*
G02Y3998220I0J96220D01*
G02X2732480Y3968560I0J-96210D01*
G03X2749980Y3975590I7339J7027D01*
G01Y4605000D01*
G02X2758770Y4626230I30033J0D01*
G01X3057980Y4925430D01*
Y5053000D01*
G02X3071650Y5071990I20025J0D01*
G03X3077640Y5085910I-3219J9634D01*
G02X3072980Y5107000I45362J21083D01*
G02X3173020I50020J0D01*
G02X3168360Y5085910I-50022J-7D01*
G03X3174350Y5071990I9209J-4286D01*
G02X3188020Y5053000I-6355J-18990D01*
G01Y4903000D01*
G02X3168000Y4882980I-20020J0D01*
G01X3100430D01*
X2810020Y4592570D01*
Y4253760D01*
G03X2828590Y4248060I10159J-2D01*
G02X2870000Y4270020I41410J-28063D01*
G02X2920020Y4220000I0J-50020D01*
G02X2919800Y4215270I-50022J-44D01*
G01X2919570Y4212890D01*
X3062330Y4070130D01*
G02X3071120Y4048900I-21243J-21230D01*
G01Y3959160D01*
G03X3089850Y3953700I10160J-3D01*
G02X3171000Y3998220I81150J-51699D01*
G02X3267220Y3902000I0J-96220D01*
G02X3255660Y3856260I-96223J-12D01*
G01X3284290Y3827630D01*
X3289770Y3833110D01*
X3289280Y3835740D01*
G02X3288780Y3841200I29520J5456D01*
G01Y4078800D01*
G02X3297570Y4100030I30033J0D01*
G01X3328770Y4131230D01*
G02X3350000Y4140020I21230J-21243D01*
G01X3460130D01*
X3472500Y4152400D01*
X3467320Y4157580D01*
X3465070Y4157470D01*
G02X3462570Y4157410I-2450J49961D01*
G02X3412550Y4207430I0J50020D01*
G02X3432550Y4247440I50020J0D01*
G01Y4262430D01*
G02X3441340Y4283660I30033J0D01*
G01X3459980Y4302290D01*
Y4809980D01*
X3372430D01*
X3359570Y4797110D01*
X3359800Y4794730D01*
G02X3360020Y4790000I-49802J-4686D01*
G02X3310000Y4840020I-50020J0D01*
G02X3314730Y4839800I44J-50022D01*
G01X3317110Y4839570D01*
X3338770Y4861230D01*
G02X3360000Y4870020I21230J-21243D01*
G01X3400260D01*
G03X3403850Y4878690I-1J5079D01*
G01X3399570Y4882980D01*
X3332000D01*
G02X3311980Y4903000I0J20020D01*
G01Y5053000D01*
G02X3332000Y5073020I20020J0D01*
G01X3422000D01*
G02X3442020Y5053000I0J-20020D01*
G01Y4925430D01*
X3511230Y4856230D01*
G02X3511300Y4856160I-21195J-21265D01*
G03X3519980Y4859740I3601J3581D01*
G01Y4884140D01*
X3488770Y4915340D01*
G02X3479980Y4936570I21243J21230D01*
G01Y5139990D01*
G37*
G54D23*
X5110000Y1155000D03*
X5349000Y4309730D03*
G54D22*
X5080000Y355000D03*
X5690000Y1155000D03*
X5400000Y1225000D03*
X5857000Y3547730D03*
X5603000D03*
Y4309730D03*
X5857000D03*
X6111000D03*
G54D25*
X964000Y5250000D03*
X5536000D03*
G54D24*
X5400000Y205000D03*
Y905000D03*
G54D21*
X1139000Y3902000D03*
G54D20*
X4441000Y2378000D03*
X3171000D03*
X3425000D03*
X3933000D03*
X2917000D03*
X2663000D03*
X2409000D03*
X2155000D03*
X1901000D03*
X1647000D03*
X1393000D03*
X1139000D03*
X3933000Y3902000D03*
X4187000D03*
Y2378000D03*
X1393000Y3902000D03*
X1647000D03*
X1901000D03*
X2155000D03*
X2409000D03*
%LPD*%
G75*
G54D10*
G01X1208000Y5522000D02*
X1091000D01*
G01X3679000Y2378000D02*
Y2699000D01*
X4190000Y3210000D01*
X4760000D01*
X4850000Y3300000D01*
X5155000D01*
G01X4139000Y4978000D02*
X4064000D01*
X4020000Y4934000D01*
Y4930000D01*
G01X5860000Y2150000D02*
X5790000D01*
X5630000Y2310000D01*
X4990000D01*
X4940000Y2360000D01*
Y2780000D01*
X5150000Y2990000D01*
Y3295000D01*
X5155000Y3300000D01*
G01X6111000Y3547730D02*
X5908270Y3345000D01*
X5200000D01*
X5155000Y3300000D01*
X350000Y350000D03*
Y5250000D03*
X964000D03*
X5400000Y205000D03*
Y905000D03*
X5536000Y5250000D03*
X6150000Y350000D03*
Y5250000D03*
G54D11*
X800000Y4440000D03*
X940000Y210000D03*
X1100000Y650000D03*
X1120000Y1790000D03*
X1130000Y2080000D03*
X1050000Y3450000D03*
X1150000Y3720000D03*
X1170000Y4100000D03*
X998000Y5522000D03*
X918000D03*
X1450000Y1850000D03*
Y2550000D03*
X1440000Y3130000D03*
X1500000Y3750000D03*
X1400000Y4380000D03*
X1440000Y4610000D03*
X1198000Y4978000D03*
X1345000Y5115000D03*
X1490000Y4890000D03*
X1480000Y5480000D03*
X1208000Y5522000D03*
X1450000Y5550000D03*
X1860000Y860000D03*
X1850000Y1150000D03*
X1550000Y2100000D03*
X1700000Y2550000D03*
X1750000Y3800000D03*
X1853000Y4853000D03*
X1830000Y5170000D03*
X1698000Y5522000D03*
X2140000Y840000D03*
Y730000D03*
X1930000Y1810000D03*
X2080000Y2090000D03*
X1950000Y2550000D03*
X2040000Y3130000D03*
X2190000Y3030000D03*
X1900000Y3450000D03*
X2000000Y3800000D03*
X2180000Y4240000D03*
X2107000Y5133000D03*
X1948000Y5522000D03*
X2340000Y100000D03*
X2490000Y420000D03*
X2200000Y2550000D03*
X2320000Y2960000D03*
X2380000Y4440000D03*
X2361000Y5109000D03*
Y5381000D03*
X2270000Y5380000D03*
X2522000Y5522000D03*
X2198000D03*
X2610000Y440000D03*
X2720000Y330000D03*
X2730000Y690000D03*
X2600000Y570000D03*
X2800000Y2250000D03*
X2560000Y2880000D03*
X2780000Y3380000D03*
X2850000Y3780000D03*
X2670000Y4040000D03*
X2600000Y4320000D03*
X2615000Y5115000D03*
X3010000Y440000D03*
X2990000Y360000D03*
X2900000Y2760000D03*
X2980000Y3010000D03*
X3000000Y3350000D03*
X3080000Y3700000D03*
X2940000Y3760000D03*
X2870000Y4220000D03*
X3123000Y5107000D03*
X3020000Y5390000D03*
X2978000Y5522000D03*
X3320000Y420000D03*
X3520000D03*
X3300000Y720000D03*
X3450000Y1870000D03*
X3300000Y2250000D03*
X3260000Y3630000D03*
X3420000Y3740000D03*
X3320000Y4170000D03*
X3462570Y4207430D03*
X3310000Y4790000D03*
X3510000Y5180000D03*
X3202000Y5522000D03*
X3450000Y5310000D03*
X3468000Y5522000D03*
X3790000Y410000D03*
X3530000Y720000D03*
X3790000D03*
X3850000Y3500000D03*
X3800000Y3750000D03*
X3650000D03*
X3640000Y4210000D03*
X3700000Y4740000D03*
X3631000Y4861000D03*
X3738000Y5522000D03*
X3980000Y420000D03*
X3950000Y2170000D03*
Y2080000D03*
X4150000Y2960000D03*
X4050000Y3260000D03*
X4150000Y3510000D03*
X4100000Y4150000D03*
X4020000Y4930000D03*
X3940000Y5130000D03*
X3978000Y5522000D03*
X4290000Y380000D03*
X4350000Y1800000D03*
X4290000Y2110000D03*
X4450000Y2810000D03*
X4250000D03*
X4200000Y2560000D03*
Y4500000D03*
X4350000Y4740000D03*
X4270000Y4880000D03*
X4478000Y5522000D03*
X4490000Y5440000D03*
X4600000Y220000D03*
X4650000Y1000000D03*
X4830000Y2380000D03*
X4650000Y2510000D03*
X4850000Y2660000D03*
X4650000Y3310000D03*
X4700000Y3850000D03*
X4600000Y4180000D03*
X4850000Y4300000D03*
X4610000Y4807500D03*
X4547270Y4757840D03*
X4720000Y4620000D03*
X4810000Y4680000D03*
X4792000Y4978000D03*
X4738000Y5522000D03*
X5070000Y2160000D03*
X4910000Y2210000D03*
X5020000Y2420000D03*
X4900000Y2920000D03*
X4950000Y3760000D03*
X4910000Y3550000D03*
X5020000Y4210000D03*
X5070000Y4510000D03*
X5108280Y4608290D03*
X5155000Y4845000D03*
X4988000Y5522000D03*
X5010000Y5450000D03*
X5490000Y2650000D03*
X5260000Y2910000D03*
X5460000Y4010000D03*
X5260000Y4460000D03*
X5250000Y4750000D03*
X5409000Y5099000D03*
X5240000Y5330000D03*
X5242000Y5522000D03*
X5400000Y5400000D03*
X5679500Y1769500D03*
X5860000Y2150000D03*
X5830000Y2470000D03*
X5550000Y3110000D03*
X5750000Y3270000D03*
X5530000Y3810000D03*
X5700000Y4060000D03*
X5663000Y5097000D03*
X5560000Y5070000D03*
X5562000Y5522000D03*
X6110000Y930000D03*
X5920000Y2650000D03*
X5950000Y2950000D03*
X5970000Y3230000D03*
Y3820000D03*
X5900000Y4850000D03*
X6210000Y2290000D03*
X6220000Y2390000D03*
X6340000Y2530000D03*
X6360000Y3070000D03*
X6320000Y3390000D03*
X6230000Y3830000D03*
X6290000Y4300000D03*
G54D12*
X837000Y4978000D03*
Y5522000D03*
X1091000Y4978000D03*
Y5522000D03*
X1345000Y4978000D03*
Y5522000D03*
X1599000Y4978000D03*
X1853000D03*
X1599000Y5522000D03*
X1853000D03*
X2107000Y4978000D03*
Y5522000D03*
X2361000Y4978000D03*
Y5522000D03*
X2615000Y4978000D03*
X2869000D03*
X2615000Y5522000D03*
X2869000D03*
X3123000Y4978000D03*
Y5522000D03*
X3377000Y4978000D03*
Y5522000D03*
X3631000Y4978000D03*
Y5522000D03*
X3885000Y4978000D03*
X4139000D03*
X3885000Y5522000D03*
X4139000D03*
X4393000Y4978000D03*
Y5522000D03*
X4647000Y4978000D03*
Y5522000D03*
X4901000Y4978000D03*
X5155000D03*
X4901000Y5522000D03*
X5155000D03*
X5409000Y4978000D03*
Y5522000D03*
X5663000Y4978000D03*
Y5522000D03*
G54D13*
X1139000Y2378000D03*
Y3902000D03*
X1393000Y2378000D03*
Y3902000D03*
X1901000Y2378000D03*
X1647000D03*
Y3902000D03*
X1901000D03*
X2155000Y2378000D03*
Y3902000D03*
X2409000Y2378000D03*
Y3902000D03*
X2917000Y2378000D03*
X2663000D03*
Y3902000D03*
X2917000D03*
X3171000Y2378000D03*
Y3902000D03*
X3425000Y2378000D03*
Y3902000D03*
X3933000Y2378000D03*
X3679000D03*
Y3902000D03*
X3933000D03*
X4187000Y2378000D03*
Y3902000D03*
X4441000Y2378000D03*
G54D14*
Y3902000D03*
G54D15*
X5080000Y355000D03*
X5110000Y1155000D03*
X5400000Y1225000D03*
X5349000Y3547730D03*
Y4309730D03*
X5720000Y355000D03*
X5690000Y1155000D03*
X5857000Y3547730D03*
X5603000D03*
Y4309730D03*
X5857000D03*
X6111000Y3547730D03*
Y4309730D03*
G54D16*
G01X1091000Y4978000D02*
X1198000D01*
G01X1345000Y5115000D02*
Y4978000D01*
G01X1599000D02*
X1523000D01*
X1490000Y4945000D01*
Y4890000D01*
G01X1698000Y5522000D02*
X1599000D01*
G01X2107000Y4978000D02*
Y5133000D01*
G01X1853000Y5522000D02*
X1948000D01*
G01X2198000D02*
X2107000D01*
G01X2361000Y5109000D02*
Y4978000D01*
G01X3123000D02*
Y4948000D01*
X2780000Y4605000D01*
Y3380000D01*
G01X2615000Y4978000D02*
Y5115000D01*
G01Y5522000D02*
X2522000D01*
G01X2870000Y4220000D02*
X3041100Y4048900D01*
Y3861100D01*
X2940000Y3760000D01*
G01X3123000Y5107000D02*
Y4978000D01*
G01X2978000Y5522000D02*
X2869000D01*
G01X3510000Y5180000D02*
Y4936570D01*
X3550000Y4896570D01*
Y4286570D01*
X3532800Y4269370D01*
Y4262800D01*
X3530000Y4260000D01*
Y4167440D01*
X3472560Y4110000D01*
X3350000D01*
X3318800Y4078800D01*
Y3841200D01*
X3420000Y3740000D01*
G01X3480000Y4845000D02*
X3490000Y4835000D01*
Y4289860D01*
X3462570Y4262430D01*
Y4207430D01*
G01X3310000Y4790000D02*
X3360000Y4840000D01*
X3475000D01*
X3480000Y4845000D01*
G01X3377000Y4978000D02*
Y4948000D01*
X3480000Y4845000D01*
G01X3377000Y5522000D02*
X3468000D01*
G01X3630000Y4858070D02*
Y4310000D01*
X3572800Y4252800D01*
Y3827200D01*
X3650000Y3750000D01*
G01X3640000Y4210000D02*
X3700000Y4270000D01*
Y4740000D01*
G01X3631000Y4978000D02*
Y4861000D01*
G01D02*
Y4859070D01*
X3630000Y4858070D01*
G01D02*
X3629930Y4858000D01*
G01X3738000Y5522000D02*
X3631000D01*
G01X3885000D02*
X3978000D01*
G01X4393000Y4978000D02*
Y4873000D01*
X4350000Y4830000D01*
Y4740000D01*
G01X4600000Y4180000D02*
X4547270Y4232730D01*
Y4757840D01*
G01X4720000Y4620000D02*
Y4340000D01*
X5310000Y3750000D01*
X6180010D01*
X6380000Y3550010D01*
Y3280000D01*
X5520000Y2420000D01*
X5020000D01*
G01X4647000Y4978000D02*
X4610000Y4941000D01*
Y4807500D01*
G01X4810000Y4680000D02*
X4900000D01*
X5070000Y4510000D01*
G01X4792000Y4978000D02*
X4810000D01*
G01D02*
X4901000D01*
G01X5108280Y4608290D02*
X4826000Y4890570D01*
Y4962000D01*
X4810000Y4978000D01*
G01X4738000Y5522000D02*
X4647000D01*
G01X5155000Y4978000D02*
Y4845000D01*
G01Y5522000D02*
Y5415000D01*
X5240000Y5330000D01*
G01X5155000Y5522000D02*
X5242000D01*
G01X5161530Y5528530D02*
X5155000Y5522000D01*
G01X5409000Y4978000D02*
Y5099000D01*
G01Y5522000D02*
Y5409000D01*
X5400000Y5400000D01*
G01X5663000Y5522000D02*
X5562000D01*
G54D17*
G01X1139000Y3805700D02*
Y3902000D01*
G01D02*
Y3998300D01*
G01X1042700Y3902000D02*
X1139000D01*
G01D02*
X1235300D01*
G01X1345000Y5426900D02*
Y5522000D01*
G01X1279900D02*
X1345000D01*
G01D02*
X1410100D01*
G01X1787900Y4978000D02*
X1853000D01*
G01Y4882900D02*
Y4978000D01*
G01D02*
Y5073100D01*
G01Y4978000D02*
X1918100D01*
G01X2361000Y5426900D02*
Y5522000D01*
G01X2295900D02*
X2361000D01*
G01D02*
X2426100D01*
G01X3171000Y3902000D02*
X3525270Y3547730D01*
X3816410D01*
X3836180Y3567500D01*
X4173820D01*
X4193590Y3547730D01*
X4930000D01*
G01X3123000Y5426900D02*
Y5522000D01*
G01X3057900D02*
X3123000D01*
G01D02*
X3188100D01*
G01X3819900Y4978000D02*
X3885000D01*
G01Y4882900D02*
Y4978000D01*
G01D02*
Y5073100D01*
G01Y4978000D02*
X3950100D01*
G01X4393000Y5426900D02*
Y5522000D01*
G01X4327900D02*
X4393000D01*
G01D02*
X4458100D01*
G01X4835900D02*
X4901000D01*
G01X5110000Y1044900D02*
Y1155000D01*
G01D02*
Y1265100D01*
G01X4999900Y1155000D02*
X5110000D01*
G01D02*
X5220100D01*
G01X5349000Y3547730D02*
X4930000D01*
G01X4910000Y3550000D02*
X4927730D01*
X4930000Y3547730D01*
G01X4901000Y5426900D02*
Y5522000D01*
G01D02*
X4966100D01*
G01X5349000Y4199630D02*
Y4309730D01*
G01D02*
Y4419830D01*
G01X5238900Y4309730D02*
X5349000D01*
G01D02*
X5459100D01*
G01X5663000Y4882900D02*
Y4978000D01*
G01D02*
Y5073100D01*
G01X5597900Y4978000D02*
X5663000D01*
G01D02*
X5728100D01*
G54D18*
G01X8012000Y4315200D02*
Y4200000D01*
X8060000D01*
G01X8099600D02*
X8129600Y4315200D01*
X8159600Y4200000D01*
G01X8148800Y4240320D02*
X8110400D01*
G01X8223200Y4200000D02*
Y4251840D01*
X8199200Y4315200D01*
G01X8247200D02*
X8223200Y4251840D01*
G01X8340800Y4200000D02*
X8292800D01*
Y4315200D01*
X8340800D01*
G01X8321600Y4259520D02*
X8292800D01*
G01X8386400Y4200000D02*
Y4315200D01*
X8416400D01*
X8426000Y4309440D01*
X8432000Y4301760D01*
X8434400Y4286400D01*
X8432000Y4271040D01*
X8424800Y4261440D01*
X8416400Y4255680D01*
X8386400D01*
G01X8416400D02*
X8434400Y4200000D01*
G01X8518400D02*
Y4315200D01*
X8474000Y4232640D01*
X8534000D01*
G01X8675600Y4238400D02*
X8706800D01*
G01X8888000Y4261440D02*
X8892800Y4267200D01*
X8896400Y4276800D01*
X8898800Y4290240D01*
X8896400Y4301760D01*
X8891600Y4309440D01*
X8883200Y4315200D01*
X8850800D01*
Y4200000D01*
X8890400D01*
X8898800Y4207680D01*
X8903600Y4219200D01*
X8906000Y4232640D01*
X8903600Y4246080D01*
X8896400Y4257600D01*
X8888000Y4261440D01*
X8850800D01*
G01X8972000Y4200000D02*
X8962400Y4201920D01*
X8954000Y4209600D01*
X8946800Y4221120D01*
X8942000Y4234560D01*
X8939600Y4249920D01*
Y4265280D01*
X8942000Y4280640D01*
X8946800Y4294080D01*
X8954000Y4305600D01*
X8962400Y4313280D01*
X8972000Y4315200D01*
X8981600Y4313280D01*
X8990000Y4305600D01*
X8997200Y4294080D01*
X9002000Y4280640D01*
X9004400Y4265280D01*
Y4249920D01*
X9002000Y4234560D01*
X8997200Y4221120D01*
X8990000Y4209600D01*
X8981600Y4201920D01*
X8972000Y4200000D01*
G01X9065600Y4315200D02*
Y4200000D01*
G01X9038000Y4315200D02*
X9093200D01*
G01X9159200D02*
Y4200000D01*
G01X9131600Y4315200D02*
X9186800D01*
G01X9252800Y4200000D02*
X9243200Y4201920D01*
X9234800Y4209600D01*
X9227600Y4221120D01*
X9222800Y4234560D01*
X9220400Y4249920D01*
Y4265280D01*
X9222800Y4280640D01*
X9227600Y4294080D01*
X9234800Y4305600D01*
X9243200Y4313280D01*
X9252800Y4315200D01*
X9262400Y4313280D01*
X9270800Y4305600D01*
X9278000Y4294080D01*
X9282800Y4280640D01*
X9285200Y4265280D01*
Y4249920D01*
X9282800Y4234560D01*
X9278000Y4221120D01*
X9270800Y4209600D01*
X9262400Y4201920D01*
X9252800Y4200000D01*
G01X9315200D02*
Y4315200D01*
X9346400Y4219200D01*
X9377600Y4315200D01*
Y4200000D01*
G54D19*
G01X3790000Y720000D02*
X3910000D01*
X4125000Y505000D01*
Y375000D01*
X3980000Y230000D01*
X1280000D01*
X700000Y810000D01*
Y4130000D01*
X810000Y4240000D01*
X2180000D01*
G01X837000Y5522000D02*
X918000D01*
G01D02*
X998000D01*
G01X1091000D02*
X998000D01*
G01X2180000Y4240000D02*
X2380000Y4440000D01*
G01X3300000Y720000D02*
X3530000D01*
G01X3790000D02*
X3530000D01*
G01X4139000Y5522000D02*
X4214000D01*
X4270000Y5466000D01*
Y4880000D01*
M02*
