G04 ================== begin FILE IDENTIFICATION RECORD ==================*
G04 Layout Name:  C:/Users/simon/Documents/Personal/SID/allegro/sid_module_b2.brd*
G04 Film Name:    SID_MODULE_B2BCL*
G04 File Format:  Gerber RS274X*
G04 File Origin:  Cadence Allegro 17.4-S018*
G04 Origin Date:  Sat Jun  5 16:08:34 2021*
G04 *
G04 Layer:  MANUFACTURING/TITLEBLOCK*
G04 Layer:  REF DES/SILKSCREEN_BOTTOM*
G04 Layer:  REF DES/DISPLAY_BOTTOM*
G04 Layer:  BOARD GEOMETRY/SILKSCREEN_BOTTOM*
G04 Layer:  PACKAGE GEOMETRY/SILKSCREEN_BOTTOM*
G04 *
G04 Offset:    (0.0000 0.0000)*
G04 Mirror:    No*
G04 Mode:      Positive*
G04 Rotation:  0*
G04 FullContactRelief:  No*
G04 UndefLineWidth:     0.1500*
G04 ================== end FILE IDENTIFICATION RECORD ====================*
%FSLAX25Y25*MOMM*%
%IR0*IPPOS*OFA0.00000B0.00000*MIA0B0*SFA1.00000B1.00000*%
%ADD10C,.15*%
G75*
%LPD*%
G75*
G54D10*
G01X1129170Y4766000D02*
X1125000Y4758000D01*
X1120000Y4752670D01*
X1114170Y4750000D01*
X1107500Y4752670D01*
X1102500Y4758000D01*
X1097500Y4766000D01*
X1095830Y4776670D01*
Y4830000D01*
G01X1061670Y4759330D02*
X1055830Y4752670D01*
X1049170Y4750000D01*
X1042500Y4752670D01*
X1036670Y4760660D01*
X1032500Y4772670D01*
X1030830Y4784670D01*
Y4799330D01*
X1032500Y4811330D01*
X1036670Y4822000D01*
X1041670Y4827330D01*
X1047500Y4830000D01*
X1054170Y4827330D01*
X1059170Y4822000D01*
X1062500Y4814000D01*
X1064170Y4803330D01*
X1062500Y4794000D01*
X1058330Y4784670D01*
X1053330Y4779330D01*
X1047500Y4778000D01*
X1040830Y4780660D01*
X1035830Y4787330D01*
X1030830Y4799330D01*
G01X7967500Y3300660D02*
X7974170Y3294000D01*
X7981670Y3290000D01*
X7988330D01*
X7995000Y3294000D01*
X8000000Y3300660D01*
X8002500Y3310000D01*
X8000830Y3319330D01*
X7996670Y3327330D01*
X7989170Y3332670D01*
X7979170Y3335330D01*
X7973330Y3340670D01*
X7970830Y3350000D01*
X7972500Y3359330D01*
X7976670Y3366000D01*
X7982500Y3370000D01*
X7988330D01*
X7994170Y3367330D01*
X7999170Y3360670D01*
G01X8050000Y3343330D02*
Y3290000D01*
G01Y3364670D02*
X8048330Y3366000D01*
Y3368670D01*
X8050000Y3370000D01*
X8051670Y3368670D01*
Y3366000D01*
X8050000Y3364670D01*
G01X8115000Y3290000D02*
Y3370000D01*
G01X8165830Y3290000D02*
Y3370000D01*
G01X8192500Y3343330D02*
X8165830Y3312670D01*
G01X8176670Y3324670D02*
X8194170Y3290000D01*
G01X8292500Y3300660D02*
X8299170Y3294000D01*
X8306670Y3290000D01*
X8313330D01*
X8320000Y3294000D01*
X8325000Y3300660D01*
X8327500Y3310000D01*
X8325830Y3319330D01*
X8321670Y3327330D01*
X8314170Y3332670D01*
X8304170Y3335330D01*
X8298330Y3340670D01*
X8295830Y3350000D01*
X8297500Y3359330D01*
X8301670Y3366000D01*
X8307500Y3370000D01*
X8313330D01*
X8319170Y3367330D01*
X8324170Y3360670D01*
G01X8388330Y3336670D02*
X8382500Y3342000D01*
X8377500Y3343330D01*
X8370830Y3340670D01*
X8365830Y3335330D01*
X8362500Y3326000D01*
X8361670Y3316670D01*
X8362500Y3307330D01*
X8365830Y3299330D01*
X8370830Y3292670D01*
X8377500Y3290000D01*
X8383330Y3292670D01*
X8388330Y3298000D01*
G01X8428330Y3290000D02*
Y3343330D01*
G01Y3332670D02*
X8432500Y3338000D01*
X8436670Y3342000D01*
X8442500Y3343330D01*
X8446670Y3342000D01*
X8451670Y3338000D01*
G01X8492500Y3326000D02*
X8519170D01*
X8516670Y3335330D01*
X8512500Y3340670D01*
X8506670Y3343330D01*
X8500830Y3342000D01*
X8495830Y3338000D01*
X8492500Y3328670D01*
X8490830Y3320660D01*
Y3312670D01*
X8492500Y3304670D01*
X8496670Y3296670D01*
X8501670Y3291330D01*
X8507500Y3290000D01*
X8513330Y3292670D01*
X8519170Y3300660D01*
G01X8557500Y3326000D02*
X8584170D01*
X8581670Y3335330D01*
X8577500Y3340670D01*
X8571670Y3343330D01*
X8565830Y3342000D01*
X8560830Y3338000D01*
X8557500Y3328670D01*
X8555830Y3320660D01*
Y3312670D01*
X8557500Y3304670D01*
X8561670Y3296670D01*
X8566670Y3291330D01*
X8572500Y3290000D01*
X8578330Y3292670D01*
X8584170Y3300660D01*
G01X8620830Y3290000D02*
Y3343330D01*
G01Y3330000D02*
X8624170Y3336670D01*
X8629170Y3342000D01*
X8635830Y3343330D01*
X8641670Y3342000D01*
X8646670Y3336670D01*
X8649170Y3327330D01*
Y3290000D01*
G01X8771670Y3332670D02*
X8775000Y3336670D01*
X8777500Y3343330D01*
X8779170Y3352670D01*
X8777500Y3360670D01*
X8774170Y3366000D01*
X8768330Y3370000D01*
X8745830D01*
Y3290000D01*
X8773330D01*
X8779170Y3295330D01*
X8782500Y3303330D01*
X8784170Y3312670D01*
X8782500Y3322000D01*
X8777500Y3330000D01*
X8771670Y3332670D01*
X8745830D01*
G01X8830000Y3290000D02*
X8825000Y3291330D01*
X8820000Y3296670D01*
X8816670Y3306000D01*
X8815000Y3316670D01*
X8816670Y3327330D01*
X8820000Y3336670D01*
X8825000Y3342000D01*
X8830000Y3343330D01*
X8835000Y3342000D01*
X8840000Y3336670D01*
X8843330Y3327330D01*
X8844170Y3316670D01*
X8843330Y3306000D01*
X8840000Y3296670D01*
X8835000Y3291330D01*
X8830000Y3290000D01*
G01X8895000Y3370000D02*
Y3290000D01*
G01X8883330Y3343330D02*
X8906670D01*
G01X8960000Y3370000D02*
Y3290000D01*
G01X8948330Y3343330D02*
X8971670D01*
G01X9025000Y3290000D02*
X9020000Y3291330D01*
X9015000Y3296670D01*
X9011670Y3306000D01*
X9010000Y3316670D01*
X9011670Y3327330D01*
X9015000Y3336670D01*
X9020000Y3342000D01*
X9025000Y3343330D01*
X9030000Y3342000D01*
X9035000Y3336670D01*
X9038330Y3327330D01*
X9039170Y3316670D01*
X9038330Y3306000D01*
X9035000Y3296670D01*
X9030000Y3291330D01*
X9025000Y3290000D01*
G01X9065000D02*
Y3343330D01*
G01Y3328670D02*
X9067500Y3335330D01*
X9071670Y3340670D01*
X9077500Y3343330D01*
X9083330Y3340670D01*
X9087500Y3335330D01*
X9090000Y3328670D01*
Y3290000D01*
G01Y3328670D02*
X9092500Y3335330D01*
X9096670Y3340670D01*
X9102500Y3343330D01*
X9108330Y3340670D01*
X9112500Y3335330D01*
X9115000Y3327330D01*
Y3290000D01*
M02*
