G04 ================== begin FILE IDENTIFICATION RECORD ==================*
G04 Layout Name:  C:/Users/simon/Documents/Personal/SID/allegro/sid_module_b2.brd*
G04 Film Name:    SID_MODULE_B2ROUTE_OUT*
G04 File Format:  Gerber RS274X*
G04 File Origin:  Cadence Allegro 17.4-S018*
G04 Origin Date:  Sat Jun  5 16:08:34 2021*
G04 *
G04 Layer:  BOARD GEOMETRY/DESIGN_OUTLINE*
G04 Layer:  BOARD GEOMETRY/CUTOUT*
G04 Layer:  BOUNDARY/ALL*
G04 Layer:  BOARD GEOMETRY/OUTLINE_BREAKOUT*
G04 *
G04 Offset:    (0.0000 0.0000)*
G04 Mirror:    No*
G04 Mode:      Positive*
G04 Rotation:  0*
G04 FullContactRelief:  No*
G04 UndefLineWidth:     0.1500*
G04 ================== end FILE IDENTIFICATION RECORD ====================*
%FSLAX25Y25*MOMM*%
%IR0*IPPOS*OFA0.00000B0.00000*MIA0B0*SFA1.00000B1.00000*%
%ADD10C,.216*%
%ADD11C,.01*%
%ADD12C,.15*%
G75*
%LPD*%
G75*
G54D10*
G01X606000Y6335200D02*
X636000Y6220000D01*
X666000Y6335200D01*
G01X714000Y6258400D02*
X745200D01*
G01X798000Y6235360D02*
X807600Y6225760D01*
X818400Y6220000D01*
X828000D01*
X837600Y6225760D01*
X844800Y6235360D01*
X848400Y6248800D01*
X846000Y6262240D01*
X840000Y6273760D01*
X829200Y6281440D01*
X814800Y6285280D01*
X806400Y6292960D01*
X802800Y6306400D01*
X805200Y6319840D01*
X811200Y6329440D01*
X819600Y6335200D01*
X828000D01*
X836400Y6331360D01*
X843600Y6321760D01*
G01X936000Y6287200D02*
X927600Y6294880D01*
X920400Y6296800D01*
X910800Y6292960D01*
X903600Y6285280D01*
X898800Y6271840D01*
X897600Y6258400D01*
X898800Y6244960D01*
X903600Y6233440D01*
X910800Y6223840D01*
X920400Y6220000D01*
X928800Y6223840D01*
X936000Y6231520D01*
G01X1010400Y6220000D02*
X1003200Y6221920D01*
X996000Y6229600D01*
X991200Y6243040D01*
X988800Y6258400D01*
X991200Y6273760D01*
X996000Y6287200D01*
X1003200Y6294880D01*
X1010400Y6296800D01*
X1017600Y6294880D01*
X1024800Y6287200D01*
X1029600Y6273760D01*
X1030800Y6258400D01*
X1029600Y6243040D01*
X1024800Y6229600D01*
X1017600Y6221920D01*
X1010400Y6220000D01*
G01X1087200D02*
Y6296800D01*
G01Y6281440D02*
X1093200Y6289120D01*
X1099200Y6294880D01*
X1107600Y6296800D01*
X1113600Y6294880D01*
X1120800Y6289120D01*
G01X1179600Y6271840D02*
X1218000D01*
X1214400Y6285280D01*
X1208400Y6292960D01*
X1200000Y6296800D01*
X1191600Y6294880D01*
X1184400Y6289120D01*
X1179600Y6275680D01*
X1177200Y6264160D01*
Y6252640D01*
X1179600Y6241120D01*
X1185600Y6229600D01*
X1192800Y6221920D01*
X1201200Y6220000D01*
X1209600Y6223840D01*
X1218000Y6235360D01*
G01X1406400Y6220000D02*
Y6296800D01*
G01Y6283360D02*
X1401600Y6291040D01*
X1394400Y6294880D01*
X1386000Y6296800D01*
X1377600Y6292960D01*
X1370400Y6285280D01*
X1365600Y6273760D01*
X1363200Y6258400D01*
X1365600Y6243040D01*
X1370400Y6231520D01*
X1377600Y6223840D01*
X1386000Y6220000D01*
X1394400Y6221920D01*
X1401600Y6227680D01*
X1406400Y6235360D01*
G01X1478400Y6220000D02*
Y6335200D01*
G01X1572000Y6220000D02*
Y6335200D01*
G01X1741200Y6271840D02*
X1779600D01*
X1776000Y6285280D01*
X1770000Y6292960D01*
X1761600Y6296800D01*
X1753200Y6294880D01*
X1746000Y6289120D01*
X1741200Y6275680D01*
X1738800Y6264160D01*
Y6252640D01*
X1741200Y6241120D01*
X1747200Y6229600D01*
X1754400Y6221920D01*
X1762800Y6220000D01*
X1771200Y6223840D01*
X1779600Y6235360D01*
G01X1874400Y6335200D02*
Y6220000D01*
G01Y6237280D02*
X1869600Y6227680D01*
X1862400Y6221920D01*
X1854000Y6220000D01*
X1844400Y6223840D01*
X1837200Y6233440D01*
X1832400Y6244960D01*
X1831200Y6258400D01*
X1832400Y6271840D01*
X1837200Y6283360D01*
X1844400Y6292960D01*
X1854000Y6296800D01*
X1862400Y6294880D01*
X1868400Y6291040D01*
X1874400Y6283360D01*
G01X1929600Y6191200D02*
X1938000Y6183520D01*
X1947600Y6181600D01*
X1956000Y6183520D01*
X1963200Y6193120D01*
X1968000Y6206560D01*
Y6296800D01*
G01Y6281440D02*
X1963200Y6289120D01*
X1956000Y6294880D01*
X1947600Y6296800D01*
X1938000Y6292960D01*
X1932000Y6285280D01*
X1927200Y6271840D01*
X1924800Y6258400D01*
X1926000Y6246880D01*
X1930800Y6233440D01*
X1938000Y6223840D01*
X1947600Y6220000D01*
X1954800Y6221920D01*
X1963200Y6229600D01*
X1968000Y6237280D01*
G01X2022000Y6271840D02*
X2060400D01*
X2056800Y6285280D01*
X2050800Y6292960D01*
X2042400Y6296800D01*
X2034000Y6294880D01*
X2026800Y6289120D01*
X2022000Y6275680D01*
X2019600Y6264160D01*
Y6252640D01*
X2022000Y6241120D01*
X2028000Y6229600D01*
X2035200Y6221920D01*
X2043600Y6220000D01*
X2052000Y6223840D01*
X2060400Y6235360D01*
G01X2115600Y6233440D02*
X2121600Y6225760D01*
X2130000Y6220000D01*
X2137200D01*
X2144400Y6223840D01*
X2149200Y6229600D01*
X2151600Y6237280D01*
X2150400Y6248800D01*
X2145600Y6254560D01*
X2124000Y6266080D01*
X2119200Y6279520D01*
X2121600Y6289120D01*
X2126400Y6294880D01*
X2133600Y6296800D01*
X2140800Y6294880D01*
X2148000Y6289120D01*
G54D11*
G01X6098430Y-70D02*
X6200010D01*
G54D12*
G01X6500000Y5650000D02*
Y0D01*
X0D01*
Y5650000D01*
X6500000D01*
M02*
