G04 ================== begin FILE IDENTIFICATION RECORD ==================*
G04 Layout Name:  C:/Users/simon/Documents/Personal/SID/allegro/sid_module_b2.brd*
G04 Film Name:    SID_MODULE_B2BPM*
G04 File Format:  Gerber RS274X*
G04 File Origin:  Cadence Allegro 17.4-S018*
G04 Origin Date:  Sat Jun  5 16:08:34 2021*
G04 *
G04 Layer:  VIA CLASS/PASTEMASK_BOTTOM*
G04 Layer:  PIN/PASTEMASK_BOTTOM*
G04 Layer:  PACKAGE GEOMETRY/PASTEMASK_BOTTOM*
G04 Layer:  MANUFACTURING/TITLEBLOCK*
G04 *
G04 Offset:    (0.0000 0.0000)*
G04 Mirror:    No*
G04 Mode:      Positive*
G04 Rotation:  0*
G04 FullContactRelief:  No*
G04 UndefLineWidth:     0.1500*
G04 ================== end FILE IDENTIFICATION RECORD ====================*
%FSLAX25Y25*MOMM*%
%IR0*IPPOS*OFA0.00000B0.00000*MIA0B0*SFA1.00000B1.00000*%
%ADD10R,.9X1.5*%
%ADD11C,.15*%
G75*
%LPD*%
G75*
G54D10*
X837000Y4978000D03*
Y5522000D03*
X1091000Y4978000D03*
Y5522000D03*
X1345000Y4978000D03*
Y5522000D03*
X1599000Y4978000D03*
X1853000D03*
X1599000Y5522000D03*
X1853000D03*
X2107000Y4978000D03*
Y5522000D03*
X2361000Y4978000D03*
Y5522000D03*
X2615000Y4978000D03*
X2869000D03*
X2615000Y5522000D03*
X2869000D03*
X3123000Y4978000D03*
Y5522000D03*
X3377000Y4978000D03*
Y5522000D03*
X3631000Y4978000D03*
Y5522000D03*
X3885000Y4978000D03*
X4139000D03*
X3885000Y5522000D03*
X4139000D03*
X4393000Y4978000D03*
Y5522000D03*
X4647000Y4978000D03*
Y5522000D03*
X4901000Y4978000D03*
X5155000D03*
X4901000Y5522000D03*
X5155000D03*
X5409000Y4978000D03*
Y5522000D03*
X5663000Y4978000D03*
Y5522000D03*
G54D11*
G01X9768330Y3690000D02*
Y3770000D01*
X9788330D01*
X9795000Y3766000D01*
X9800000Y3756670D01*
X9801670Y3746000D01*
X9800000Y3735330D01*
X9795830Y3727330D01*
X9788330Y3723330D01*
X9768330D01*
G01X9865000Y3690000D02*
Y3743330D01*
G01Y3734000D02*
X9861670Y3739330D01*
X9856670Y3742000D01*
X9850830Y3743330D01*
X9845000Y3740670D01*
X9840000Y3735330D01*
X9836670Y3727330D01*
X9835000Y3716670D01*
X9836670Y3706000D01*
X9840000Y3698000D01*
X9845000Y3692670D01*
X9850830Y3690000D01*
X9856670Y3691330D01*
X9861670Y3695330D01*
X9865000Y3700660D01*
G01X9902500Y3699330D02*
X9906670Y3694000D01*
X9912500Y3690000D01*
X9917500D01*
X9922500Y3692670D01*
X9925830Y3696670D01*
X9927500Y3702000D01*
X9926670Y3710000D01*
X9923330Y3714000D01*
X9908330Y3722000D01*
X9905000Y3731330D01*
X9906670Y3738000D01*
X9910000Y3742000D01*
X9915000Y3743330D01*
X9920000Y3742000D01*
X9925000Y3738000D01*
G01X9980000Y3770000D02*
Y3690000D01*
G01X9968330Y3743330D02*
X9991670D01*
G01X10032500Y3726000D02*
X10059170D01*
X10056670Y3735330D01*
X10052500Y3740670D01*
X10046670Y3743330D01*
X10040830Y3742000D01*
X10035830Y3738000D01*
X10032500Y3728670D01*
X10030830Y3720660D01*
Y3712670D01*
X10032500Y3704670D01*
X10036670Y3696670D01*
X10041670Y3691330D01*
X10047500Y3690000D01*
X10053330Y3692670D01*
X10059170Y3700660D01*
G01X10153330Y3690000D02*
Y3770000D01*
X10175000Y3703330D01*
X10196670Y3770000D01*
Y3690000D01*
G01X10255000D02*
Y3743330D01*
G01Y3734000D02*
X10251670Y3739330D01*
X10246670Y3742000D01*
X10240830Y3743330D01*
X10235000Y3740670D01*
X10230000Y3735330D01*
X10226670Y3727330D01*
X10225000Y3716670D01*
X10226670Y3706000D01*
X10230000Y3698000D01*
X10235000Y3692670D01*
X10240830Y3690000D01*
X10246670Y3691330D01*
X10251670Y3695330D01*
X10255000Y3700660D01*
G01X10292500Y3699330D02*
X10296670Y3694000D01*
X10302500Y3690000D01*
X10307500D01*
X10312500Y3692670D01*
X10315830Y3696670D01*
X10317500Y3702000D01*
X10316670Y3710000D01*
X10313330Y3714000D01*
X10298330Y3722000D01*
X10295000Y3731330D01*
X10296670Y3738000D01*
X10300000Y3742000D01*
X10305000Y3743330D01*
X10310000Y3742000D01*
X10315000Y3738000D01*
G01X10355830Y3690000D02*
Y3770000D01*
G01X10382500Y3743330D02*
X10355830Y3712670D01*
G01X10366670Y3724670D02*
X10384170Y3690000D01*
G01X10506670Y3732670D02*
X10510000Y3736670D01*
X10512500Y3743330D01*
X10514170Y3752670D01*
X10512500Y3760670D01*
X10509170Y3766000D01*
X10503330Y3770000D01*
X10480830D01*
Y3690000D01*
X10508330D01*
X10514170Y3695330D01*
X10517500Y3703330D01*
X10519170Y3712670D01*
X10517500Y3722000D01*
X10512500Y3730000D01*
X10506670Y3732670D01*
X10480830D01*
G01X10565000Y3690000D02*
X10560000Y3691330D01*
X10555000Y3696670D01*
X10551670Y3706000D01*
X10550000Y3716670D01*
X10551670Y3727330D01*
X10555000Y3736670D01*
X10560000Y3742000D01*
X10565000Y3743330D01*
X10570000Y3742000D01*
X10575000Y3736670D01*
X10578330Y3727330D01*
X10579170Y3716670D01*
X10578330Y3706000D01*
X10575000Y3696670D01*
X10570000Y3691330D01*
X10565000Y3690000D01*
G01X10630000Y3770000D02*
Y3690000D01*
G01X10618330Y3743330D02*
X10641670D01*
G01X10695000Y3770000D02*
Y3690000D01*
G01X10683330Y3743330D02*
X10706670D01*
G01X10760000Y3690000D02*
X10755000Y3691330D01*
X10750000Y3696670D01*
X10746670Y3706000D01*
X10745000Y3716670D01*
X10746670Y3727330D01*
X10750000Y3736670D01*
X10755000Y3742000D01*
X10760000Y3743330D01*
X10765000Y3742000D01*
X10770000Y3736670D01*
X10773330Y3727330D01*
X10774170Y3716670D01*
X10773330Y3706000D01*
X10770000Y3696670D01*
X10765000Y3691330D01*
X10760000Y3690000D01*
G01X10800000D02*
Y3743330D01*
G01Y3728670D02*
X10802500Y3735330D01*
X10806670Y3740670D01*
X10812500Y3743330D01*
X10818330Y3740670D01*
X10822500Y3735330D01*
X10825000Y3728670D01*
Y3690000D01*
G01Y3728670D02*
X10827500Y3735330D01*
X10831670Y3740670D01*
X10837500Y3743330D01*
X10843330Y3740670D01*
X10847500Y3735330D01*
X10850000Y3727330D01*
Y3690000D01*
M02*
