G04 ================== begin FILE IDENTIFICATION RECORD ==================*
G04 Layout Name:  C:/Users/simon/Documents/Personal/SID/allegro/sid_module_b2.brd*
G04 Film Name:    SID_MODULE_B2TSM*
G04 File Format:  Gerber RS274X*
G04 File Origin:  Cadence Allegro 17.4-S018*
G04 Origin Date:  Sat Jun  5 16:08:34 2021*
G04 *
G04 Layer:  VIA CLASS/SOLDERMASK_TOP*
G04 Layer:  PIN/SOLDERMASK_TOP*
G04 Layer:  PACKAGE GEOMETRY/SOLDERMASK_TOP*
G04 Layer:  MANUFACTURING/TITLEBLOCK*
G04 Layer:  BOARD GEOMETRY/SOLDERMASK_TOP*
G04 *
G04 Offset:    (0.0000 0.0000)*
G04 Mirror:    No*
G04 Mode:      Positive*
G04 Rotation:  0*
G04 FullContactRelief:  No*
G04 UndefLineWidth:     0.1500*
G04 ================== end FILE IDENTIFICATION RECORD ====================*
%FSLAX25Y25*MOMM*%
%IR0*IPPOS*OFA0.00000B0.00000*MIA0B0*SFA1.00000B1.00000*%
%ADD28O,1.5X.6*%
%ADD12R,.9X1.5*%
%ADD18R,1.397X.762*%
%ADD21R,1.3X1.15*%
%ADD19R,1.8X3.2*%
%ADD22C,1.*%
%ADD13R,3.X2.9*%
%ADD23R,1.8X1.15*%
%ADD15C,2.*%
%ADD17R,1.15X1.8*%
%ADD27C,1.4*%
%ADD20R,4.9X4.3*%
%ADD10C,6.*%
%ADD26R,.8X.35*%
%ADD25C,1.8*%
%ADD29C,1.9*%
%ADD16R,.9X.85*%
%ADD11R,.85X.9*%
%ADD14C,1.905*%
%ADD24R,1.905X1.905*%
%ADD30C,.15*%
G75*
%LPD*%
G75*
G36*
G01X1050000Y0D02*
Y340000D01*
X680000D01*
Y0D01*
X1050000D01*
G37*
G36*
G01X6450000Y950000D02*
Y1290000D01*
X6080000D01*
Y950000D01*
X6450000D01*
G37*
G54D10*
X350000Y350000D03*
Y5250000D03*
X6150000Y350000D03*
Y5250000D03*
G54D11*
X850000Y1980000D03*
Y2110000D03*
X1010000Y1980000D03*
Y2110000D03*
X1440000Y4800000D03*
X1600000D03*
X2540000Y210000D03*
X2700000D03*
X3570000Y2170000D03*
X3730000D03*
X3840000Y2030000D03*
X3680000D03*
X3750000Y4130000D03*
X3910000D03*
X4060000Y4630000D03*
X4400000Y4130000D03*
X4240000D03*
X4220000Y4630000D03*
X4350000D03*
X4510000D03*
X4710000Y4780000D03*
X4870000D03*
X5050000Y1440000D03*
X5170000Y1850000D03*
Y2010000D03*
X5210000Y1440000D03*
X5330000Y1850000D03*
Y2010000D03*
X5220000Y2490000D03*
X5380000D03*
X5550000Y1430000D03*
X5710000D03*
X5600000Y1630000D03*
X5760000D03*
X5770000Y2760000D03*
X5610000D03*
X5700000Y3070000D03*
X5860000D03*
X5700000Y2940000D03*
X5860000D03*
X5920000Y2760000D03*
X6080000D03*
X6370000Y2200000D03*
X6210000D03*
G54D20*
X2655000Y1745000D03*
G54D30*
G01X7967500Y3900660D02*
X7974170Y3894000D01*
X7981670Y3890000D01*
X7988330D01*
X7995000Y3894000D01*
X8000000Y3900660D01*
X8002500Y3910000D01*
X8000830Y3919330D01*
X7996670Y3927330D01*
X7989170Y3932670D01*
X7979170Y3935330D01*
X7973330Y3940670D01*
X7970830Y3950000D01*
X7972500Y3959330D01*
X7976670Y3966000D01*
X7982500Y3970000D01*
X7988330D01*
X7994170Y3967330D01*
X7999170Y3960670D01*
G01X8050000Y3890000D02*
X8045000Y3891330D01*
X8040000Y3896670D01*
X8036670Y3906000D01*
X8035000Y3916670D01*
X8036670Y3927330D01*
X8040000Y3936670D01*
X8045000Y3942000D01*
X8050000Y3943330D01*
X8055000Y3942000D01*
X8060000Y3936670D01*
X8063330Y3927330D01*
X8064170Y3916670D01*
X8063330Y3906000D01*
X8060000Y3896670D01*
X8055000Y3891330D01*
X8050000Y3890000D01*
G01X8115000D02*
Y3970000D01*
G01X8195000D02*
Y3890000D01*
G01Y3902000D02*
X8191670Y3895330D01*
X8186670Y3891330D01*
X8180830Y3890000D01*
X8174170Y3892670D01*
X8169170Y3899330D01*
X8165830Y3907330D01*
X8165000Y3916670D01*
X8165830Y3926000D01*
X8169170Y3934000D01*
X8174170Y3940670D01*
X8180830Y3943330D01*
X8186670Y3942000D01*
X8190830Y3939330D01*
X8195000Y3934000D01*
G01X8232500Y3926000D02*
X8259170D01*
X8256670Y3935330D01*
X8252500Y3940670D01*
X8246670Y3943330D01*
X8240830Y3942000D01*
X8235830Y3938000D01*
X8232500Y3928670D01*
X8230830Y3920660D01*
Y3912670D01*
X8232500Y3904670D01*
X8236670Y3896670D01*
X8241670Y3891330D01*
X8247500Y3890000D01*
X8253330Y3892670D01*
X8259170Y3900660D01*
G01X8298330Y3890000D02*
Y3943330D01*
G01Y3932670D02*
X8302500Y3938000D01*
X8306670Y3942000D01*
X8312500Y3943330D01*
X8316670Y3942000D01*
X8321670Y3938000D01*
G01X8418330Y3890000D02*
Y3970000D01*
X8440000Y3903330D01*
X8461670Y3970000D01*
Y3890000D01*
G01X8520000D02*
Y3943330D01*
G01Y3934000D02*
X8516670Y3939330D01*
X8511670Y3942000D01*
X8505830Y3943330D01*
X8500000Y3940670D01*
X8495000Y3935330D01*
X8491670Y3927330D01*
X8490000Y3916670D01*
X8491670Y3906000D01*
X8495000Y3898000D01*
X8500000Y3892670D01*
X8505830Y3890000D01*
X8511670Y3891330D01*
X8516670Y3895330D01*
X8520000Y3900660D01*
G01X8557500Y3899330D02*
X8561670Y3894000D01*
X8567500Y3890000D01*
X8572500D01*
X8577500Y3892670D01*
X8580830Y3896670D01*
X8582500Y3902000D01*
X8581670Y3910000D01*
X8578330Y3914000D01*
X8563330Y3922000D01*
X8560000Y3931330D01*
X8561670Y3938000D01*
X8565000Y3942000D01*
X8570000Y3943330D01*
X8575000Y3942000D01*
X8580000Y3938000D01*
G01X8620830Y3890000D02*
Y3970000D01*
G01X8647500Y3943330D02*
X8620830Y3912670D01*
G01X8631670Y3924670D02*
X8649170Y3890000D01*
G01X8765000Y3970000D02*
Y3890000D01*
G01X8745830Y3970000D02*
X8784170D01*
G01X8830000Y3890000D02*
X8825000Y3891330D01*
X8820000Y3896670D01*
X8816670Y3906000D01*
X8815000Y3916670D01*
X8816670Y3927330D01*
X8820000Y3936670D01*
X8825000Y3942000D01*
X8830000Y3943330D01*
X8835000Y3942000D01*
X8840000Y3936670D01*
X8843330Y3927330D01*
X8844170Y3916670D01*
X8843330Y3906000D01*
X8840000Y3896670D01*
X8835000Y3891330D01*
X8830000Y3890000D01*
G01X8880000Y3863330D02*
Y3943330D01*
G01Y3931330D02*
X8884170Y3938000D01*
X8888330Y3942000D01*
X8895000Y3943330D01*
X8900830Y3942000D01*
X8906670Y3935330D01*
X8909170Y3926000D01*
X8910000Y3916670D01*
X8909170Y3907330D01*
X8906670Y3898000D01*
X8901670Y3892670D01*
X8895000Y3890000D01*
X8889170Y3891330D01*
X8883330Y3895330D01*
X8880000Y3900660D01*
G54D21*
X3220000Y1105000D03*
Y1415000D03*
G54D12*
X837000Y4978000D03*
Y5522000D03*
X1091000Y4978000D03*
Y5522000D03*
X1345000Y4978000D03*
Y5522000D03*
X1599000Y4978000D03*
X1853000D03*
X1599000Y5522000D03*
X1853000D03*
X2107000Y4978000D03*
Y5522000D03*
X2361000Y4978000D03*
Y5522000D03*
X2615000Y4978000D03*
X2869000D03*
X2615000Y5522000D03*
X2869000D03*
X3123000Y4978000D03*
Y5522000D03*
X3377000Y4978000D03*
Y5522000D03*
X3631000Y4978000D03*
Y5522000D03*
X3885000Y4978000D03*
X4139000D03*
X3885000Y5522000D03*
X4139000D03*
X4393000Y4978000D03*
Y5522000D03*
X4647000Y4978000D03*
Y5522000D03*
X4901000Y4978000D03*
X5155000D03*
X4901000Y5522000D03*
X5155000D03*
X5409000Y4978000D03*
Y5522000D03*
X5663000Y4978000D03*
Y5522000D03*
G54D13*
X1040000Y1440000D03*
X2060000D03*
G54D22*
X3170000Y2120000D03*
X3430000Y2130000D03*
X3700000Y1850000D03*
X4910000Y3430000D03*
G54D14*
X1139000Y2378000D03*
Y3902000D03*
X1393000Y2378000D03*
Y3902000D03*
X1901000Y2378000D03*
X1647000D03*
Y3902000D03*
X1901000D03*
X2155000Y2378000D03*
Y3902000D03*
X2409000Y2378000D03*
Y3902000D03*
X2917000Y2378000D03*
X2663000D03*
Y3902000D03*
X2917000D03*
X3171000Y2378000D03*
Y3902000D03*
X3425000Y2378000D03*
Y3902000D03*
X3933000Y2378000D03*
X3679000D03*
Y3902000D03*
X3933000D03*
X4187000Y2378000D03*
Y3902000D03*
X4441000Y2378000D03*
G54D23*
X3530000Y555000D03*
X3300000D03*
X3530000Y855000D03*
X3300000D03*
X3760000Y555000D03*
Y855000D03*
X3990000Y555000D03*
Y855000D03*
X4840000Y1765000D03*
Y2065000D03*
G54D24*
X4441000Y3902000D03*
G54D15*
X964000Y5250000D03*
X5536000D03*
G54D16*
X1830000Y400000D03*
X1680000D03*
Y240000D03*
X1830000Y560000D03*
X2130000Y210000D03*
Y370000D03*
X1970000Y400000D03*
Y560000D03*
X2200000Y4590000D03*
Y4750000D03*
X2390000Y4590000D03*
Y4750000D03*
X2620000Y4590000D03*
Y4750000D03*
X2820000Y4590000D03*
Y4750000D03*
X3060000Y580000D03*
Y740000D03*
X2960000Y4590000D03*
Y4750000D03*
X3100000Y4590000D03*
Y4750000D03*
X3850000Y4530000D03*
Y4690000D03*
X4190000Y2090000D03*
Y1930000D03*
X4790000Y1440000D03*
Y1600000D03*
X5030000Y1850000D03*
Y2010000D03*
X5100000Y2760000D03*
Y2920000D03*
X4930000Y3110000D03*
Y3270000D03*
X5400000Y1430000D03*
Y1590000D03*
X5270000Y2150000D03*
Y2310000D03*
X5390000Y4580000D03*
Y4740000D03*
X5560000Y2390000D03*
X5720000D03*
X5560000Y2550000D03*
X5720000D03*
X5590000Y4580000D03*
Y4740000D03*
X6210000Y2050000D03*
Y1890000D03*
X6080000Y2420000D03*
Y2580000D03*
X6090000Y3070000D03*
Y3230000D03*
X6370000Y1890000D03*
Y2050000D03*
G54D25*
X5080000Y355000D03*
X5110000Y1155000D03*
X5400000Y1225000D03*
X5720000Y355000D03*
X5690000Y1155000D03*
G54D26*
X5050000Y3110000D03*
X5210000Y3060000D03*
Y3160000D03*
G54D17*
X1705000Y800000D03*
X2005000D03*
X5935000Y1400000D03*
X6235000D03*
G54D27*
X5400000Y205000D03*
Y905000D03*
G54D18*
X2362350Y466500D03*
Y339500D03*
Y720500D03*
Y593500D03*
X2857650Y466500D03*
Y339500D03*
Y593500D03*
Y720500D03*
G54D19*
X2425000Y1045000D03*
X2885000D03*
G54D28*
X5500000Y1769500D03*
Y2150500D03*
Y2023500D03*
Y1896500D03*
X6040000Y1769500D03*
Y1896500D03*
Y2023500D03*
Y2150500D03*
G54D29*
X5349000Y3547730D03*
Y4309730D03*
X5857000Y3547730D03*
X5603000D03*
Y4309730D03*
X5857000D03*
X6111000Y3547730D03*
Y4309730D03*
M02*
